# File created by Blade
# Date/Time:  Wed Apr 08 17:20:14 2015
#---------------------------------------------------------
:version 1.10
:name HOM
:units
  mass 1.0
  length 1.000000
  angle deg
:documentation
     Acclaim Skeleton File
:root
   axis xyz
   order TX TY TZ RX RY RZ
   position 0.000000 0.000000 0.000000
   orientation 0 0 0
:bonedata
   begin
      id 1
      name Spine_dum
      direction 0.000000 1.000000 0.000000
      length 5.893853
      axis 0.0 0.0 0.0 xyz
   end
   begin
      id 2
      name LeftUpLeg_dum
      direction 1.000000 0.000000 0.000000
      length 3.697939
      axis 0.0 0.0 0.0 xyz
   end
   begin
      id 3
      name RightUpLeg_dum
      direction -1.000000 0.000000 0.000000
      length 3.697939
      axis 0.0 0.0 0.0 xyz
   end
   begin
      id 4
      name Spine
      direction 0.000000 1.000000 0.000000
      length 0.000000
      axis 0.0 0.0 0.0 xyz
      dof rx ry rz
   end
   begin
      id 5
      name Spine_dum1
      direction 0.000000 1.000000 0.000000
      length 16.447146
      axis 0.0 0.0 0.0 xyz
   end
   begin
      id 6
      name Spine_dum2
      direction 0.000000 1.000000 0.000000
      length 10.900383
      axis 0.0 0.0 0.0 xyz
   end
   begin
      id 7
      name Spine_dum3
      direction 0.000000 1.000000 0.000000
      length 10.900383
      axis 0.0 0.0 0.0 xyz
   end
   begin
      id 8
      name Head
      direction 0.000000 1.000000 0.000000
      length 4.527550
      axis 0.0 0.0 0.0 xyz
      dof rx ry rz
   end
   begin
      id 9
      name LeftShoulder
      direction 1.000000 0.000000 0.000000
      length 8.219464
      axis 0.0 0.0 -90.0 xyz
      dof rx ry rz
   end
   begin
      id 10
      name LeftArm
      direction 1.000000 0.000000 0.000000
      length 11.094937
      axis 0.0 0.0 -90.0 xyz
      dof rx ry rz
   end
   begin
      id 11
      name LeftForeArm
      direction 1.000000 0.000000 0.000000
      length 9.103875
      axis 0.0 0.0 -90.0 xyz
      dof ry rz rx
   end
   begin
      id 12
      name LeftHand
      direction 0.000000 0.000000 0.000000
      length 0.000000
      axis 0.0 0.0 -90.0 xyz
      dof rx ry rz
   end
   begin
      id 13
      name LeftHand_dum1
      direction 0.000000 0.000000 0.000000
      length 0.000000
      axis 0.0 0.0 -90.0 xyz
   end
   begin
      id 14
      name LeftHand_dum2
      direction 1.000000 0.000000 0.000000
      length 3.937000
      axis 0.0 0.0 -90.0 xyz
   end
   begin
      id 15
      name LeftHandThumb1
      direction 0.000000 0.000000 1.000000
      length 3.937000
      axis 0.0 0.0 -90.0 xyz
      dof rx rz ry
   end
   begin
      id 16
      name RightShoulder
      direction -1.000000 0.000000 0.000000
      length 8.219464
      axis 0.0 0.0 90.0 xyz
      dof rx ry rz
   end
   begin
      id 17
      name RightArm
      direction -1.000000 0.000000 0.000000
      length 11.094937
      axis 0.0 0.0 90.0 xyz
      dof rx ry rz
   end
   begin
      id 18
      name RightForeArm
      direction -1.000000 0.000000 0.000000
      length 9.103875
      axis 0.0 0.0 90.0 xyz
      dof ry rz rx
   end
   begin
      id 19
      name RightHand
      direction 0.000000 0.000000 0.000000
      length 0.000000
      axis 0.0 0.0 90.0 xyz
      dof rx ry rz
   end
   begin
      id 20
      name RightHand_dum1
      direction 0.000000 0.000000 0.000000
      length 0.000000
      axis 0.0 0.0 90.0 xyz
   end
   begin
      id 21
      name RightHand_dum2
      direction -1.000000 0.000000 0.000000
      length 3.937000
      axis 0.0 0.0 90.0 xyz
   end
   begin
      id 22
      name RightHandThumb1
      direction 0.000000 0.000000 1.000000
      length 3.937000
      axis 0.0 0.0 90.0 xyz
      dof rx rz ry
   end
   begin
      id 23
      name LeftUpLeg
      direction 0.000000 -1.000000 0.000000
      length 16.181467
      axis 0.0 0.0 0.0 xyz
      dof rx ry rz
   end
   begin
      id 24
      name LeftLeg
      direction 0.000000 -1.000000 0.000000
      length 16.501392
      axis 0.0 0.0 0.0 xyz
      dof rx ry rz
   end
   begin
      id 25
      name LeftFoot
      direction 0.000000 -0.258819 0.965926
      length 6.408245
      axis 15.0 0.0 0.0 xyz
      dof rx ry rz
   end
   begin
      id 26
      name LeftToeBase
      direction 0.000000 0.000000 1.000000
      length 2.952750
      axis 0.0 0.0 0.0 xyz
      dof rx ry rz
   end
   begin
      id 27
      name RightUpLeg
      direction 0.000000 -1.000000 0.000000
      length 16.181467
      axis 0.0 0.0 0.0 xyz
      dof rx ry rz
   end
   begin
      id 28
      name RightLeg
      direction 0.000000 -1.000000 0.000000
      length 16.501392
      axis 0.0 0.0 0.0 xyz
      dof rx ry rz
   end
   begin
      id 29
      name RightFoot
      direction 0.000000 -0.258819 0.965926
      length 6.408245
      axis 15.0 0.0 0.0 xyz
      dof rx ry rz
   end
   begin
      id 30
      name RightToeBase
      direction 0.000000 0.000000 1.000000
      length 2.952750
      axis 0.0 0.0 0.0 xyz
      dof rx ry rz
   end
:hierarchy
   begin
      root Spine_dum LeftUpLeg_dum RightUpLeg_dum
      Spine_dum Spine
      LeftUpLeg_dum LeftUpLeg
      RightUpLeg_dum RightUpLeg
      Spine Spine_dum1 Spine_dum2 Spine_dum3
      Spine_dum1 Head
      Spine_dum2 LeftShoulder
      Spine_dum3 RightShoulder
      LeftShoulder LeftArm
      LeftArm LeftForeArm
      LeftForeArm LeftHand
      LeftHand LeftHand_dum1 LeftHand_dum2
      LeftHand_dum1 LeftHandThumb1
      RightShoulder RightArm
      RightArm RightForeArm
      RightForeArm RightHand
      RightHand RightHand_dum1 RightHand_dum2
      RightHand_dum1 RightHandThumb1
      LeftUpLeg LeftLeg
      LeftLeg LeftFoot
      LeftFoot LeftToeBase
      RightUpLeg RightLeg
      RightLeg RightFoot
      RightFoot RightToeBase
   end

# File created by Blade
# Date/Time:  Wed Apr 08 17:19:54 2015
# Frame Rate: 120.000 fps
#------------------------------------------------------
:FULLY-SPECIFIED
:DEGREES
691
root 5.478983 35.758177 1.681930 -7.666761 -31.463851 0.515299
Spine 8.484775 0.138984 3.748312
Head 25.925833 25.235947 11.542263
LeftShoulder -7.015075 17.062507 15.853682
LeftArm 17.073364 21.338393 -76.237792
LeftForeArm 19.483888 0.000000 20.229395
LeftHand -10.924397 0.000000 -15.813214
LeftHandThumb1 -26.253704 0.000000 33.147579
RightShoulder -32.752140 -49.493611 27.125400
RightArm 60.176678 -22.875294 49.826916
RightForeArm 26.004032 -0.000000 2.464641
RightHand -8.015308 -0.000000 15.147863
RightHandThumb1 -24.326973 -0.000000 -32.862282
LeftUpLeg 12.061285 3.135498 -6.907920
LeftLeg 9.086762 -0.000000 -0.000000
LeftFoot -15.934762 -2.607066 -1.716788
LeftToeBase 13.342754 -0.000000 -0.000000
RightUpLeg -21.437572 4.561466 1.985218
RightLeg 151.843486 -0.000000 -0.000000
RightFoot 37.348273 6.521334 13.017942
RightToeBase 8.001293 -0.000000 -0.000000
692
root 5.468675 35.762443 1.676810 -7.628136 -31.725527 0.476644
Spine 8.481322 0.273597 3.658469
Head 25.928862 25.223425 11.661016
LeftShoulder -7.005771 17.069263 15.879348
LeftArm 17.037881 21.402212 -76.229850
LeftForeArm 19.560731 -0.000000 20.201541
LeftHand -10.963295 0.000000 -15.754646
LeftHandThumb1 -26.253704 0.000000 33.147579
RightShoulder -32.801219 -49.519366 27.239987
RightArm 60.127750 -22.833277 49.860248
RightForeArm 26.060279 -0.000000 2.485004
RightHand -8.094992 -0.000000 15.156378
RightHandThumb1 -24.326973 -0.000000 -32.862282
LeftUpLeg 12.065836 3.295076 -6.842658
LeftLeg 9.038611 -0.000000 -0.000000
LeftFoot -15.980326 -2.570647 -1.919548
LeftToeBase 13.581241 -0.000000 -0.000000
RightUpLeg -21.399200 4.551611 1.918436
RightLeg 151.835260 -0.000000 -0.000000
RightFoot 37.278611 6.402977 12.934392
RightToeBase 8.025061 -0.000000 -0.000000
693
root 5.458233 35.768210 1.671005 -7.573133 -31.970397 0.367588
Spine 8.506138 0.355637 3.654356
Head 25.919627 25.238047 11.722481
LeftShoulder -7.021589 17.105469 15.850564
LeftArm 17.049022 21.465172 -76.184041
LeftForeArm 19.669735 0.000000 20.171250
LeftHand -10.889594 -0.000000 -15.974651
LeftHandThumb1 -26.253704 0.000000 33.147579
RightShoulder -32.829947 -49.523128 27.303599
RightArm 60.089256 -22.819055 49.877315
RightForeArm 26.053959 0.000000 2.497008
RightHand -8.025009 -0.000000 15.026693
RightHandThumb1 -24.326973 -0.000000 -32.862282
LeftUpLeg 12.079594 3.484069 -6.700820
LeftLeg 9.019928 -0.000000 -0.000000
LeftFoot -16.047976 -2.596835 -2.101788
LeftToeBase 13.753999 -0.000000 -0.000000
RightUpLeg -21.314945 4.531985 1.891455
RightLeg 151.801293 -0.000000 -0.000000
RightFoot 37.159947 6.387605 12.781946
RightToeBase 8.039061 -0.000000 -0.000000
694
root 5.447709 35.772931 1.663270 -7.537567 -32.218697 0.323712
Spine 8.512669 0.425650 3.558174
Head 25.932881 25.287059 11.844735
LeftShoulder -7.022500 17.117641 15.863386
LeftArm 17.013116 21.575503 -76.132566
LeftForeArm 19.720862 0.000000 20.157143
LeftHand -10.821722 -0.000000 -16.074156
LeftHandThumb1 -26.253704 0.000000 33.147579
RightShoulder -32.862225 -49.507374 27.389952
RightArm 60.056073 -22.792493 49.930817
RightForeArm 25.989838 -0.000000 2.465532
RightHand -8.080634 -0.000000 14.960070
RightHandThumb1 -24.326973 -0.000000 -32.862282
LeftUpLeg 12.058144 3.721600 -6.596848
LeftLeg 9.032485 -0.000000 -0.000000
LeftFoot -16.093196 -2.688472 -2.280506
LeftToeBase 13.916275 -0.000000 -0.000000
RightUpLeg -21.266549 4.528393 1.821439
RightLeg 151.780067 -0.000000 -0.000000
RightFoot 37.117658 6.305393 12.771705
RightToeBase 8.064140 -0.000000 -0.000000
695
root 5.437343 35.778777 1.658810 -7.549339 -32.457319 0.292845
Spine 8.559070 0.462294 3.448812
Head 25.963465 25.367963 11.966945
LeftShoulder -7.044213 17.153323 15.867564
LeftArm 16.991643 21.646505 -76.103794
LeftForeArm 19.863161 -0.000000 20.154280
LeftHand -10.860019 -0.000000 -16.073679
LeftHandThumb1 -26.253704 0.000000 33.147579
RightShoulder -32.894663 -49.490380 27.480428
RightArm 60.064655 -22.793430 49.902104
RightForeArm 25.996708 -0.000000 2.418454
RightHand -8.016988 -0.000000 14.939841
RightHandThumb1 -24.326973 -0.000000 -32.862282
LeftUpLeg 12.077308 3.990946 -6.491051
LeftLeg 9.053713 -0.000000 -0.000000
LeftFoot -16.128507 -2.836574 -2.468131
LeftToeBase 14.175777 -0.000000 -0.000000
RightUpLeg -21.161537 4.505784 1.734110
RightLeg 151.768359 -0.000000 -0.000000
RightFoot 37.024740 6.360100 12.594590
RightToeBase 8.081829 -0.000000 -0.000000
696
root 5.428013 35.784756 1.653513 -7.529964 -32.664583 0.243680
Spine 8.572788 0.463766 3.363035
Head 26.022550 25.455969 12.084082
LeftShoulder -7.066441 17.192704 15.862518
LeftArm 16.990673 21.766574 -76.040090
LeftForeArm 19.871739 -0.000000 20.115394
LeftHand -10.769614 -0.000000 -16.119960
LeftHandThumb1 -26.253704 0.000000 33.147579
RightShoulder -32.910354 -49.483365 27.519333
RightArm 60.038407 -22.765250 49.986354
RightForeArm 25.955123 -0.000000 2.375092
RightHand -8.047486 0.000000 14.941144
RightHandThumb1 -24.326973 -0.000000 -32.862282
LeftUpLeg 12.074151 4.267013 -6.362412
LeftLeg 9.076982 -0.000000 -0.000000
LeftFoot -16.163345 -3.034375 -2.662496
LeftToeBase 14.372468 -0.000000 -0.000000
RightUpLeg -21.077887 4.424992 1.662883
RightLeg 151.741610 -0.000000 -0.000000
RightFoot 36.977917 6.264081 12.616266
RightToeBase 8.099200 -0.000000 -0.000000
697
root 5.419270 35.790642 1.649894 -7.537460 -32.847484 0.223244
Spine 8.586868 0.433217 3.249295
Head 26.101944 25.528086 12.173542
LeftShoulder -7.086431 17.230240 15.868537
LeftArm 16.996599 21.925717 -75.984251
LeftForeArm 19.874685 -0.000000 20.057939
LeftHand -10.773790 0.000000 -16.089868
LeftHandThumb1 -26.253704 0.000000 33.147579
RightShoulder -32.952558 -49.510342 27.545427
RightArm 60.036991 -22.729083 50.136067
RightForeArm 25.855536 -0.000000 2.314293
RightHand -8.137915 -0.000000 14.898619
RightHandThumb1 -24.326973 -0.000000 -32.862282
LeftUpLeg 12.092941 4.536407 -6.251536
LeftLeg 9.084297 -0.000000 -0.000000
LeftFoot -16.198412 -3.286534 -2.908209
LeftToeBase 14.650829 -0.000000 -0.000000
RightUpLeg -20.981199 4.321518 1.542666
RightLeg 151.724613 -0.000000 -0.000000
RightFoot 37.007733 6.221268 12.551809
RightToeBase 8.114636 -0.000000 -0.000000
